<svg xmlns="http://www.w3.org/2000/svg" xmlns:svg="http://www.w3.org/2000/svg" id="svg6382" width="368.169" height="325.168" version="1.1" viewBox="0 0 97.411 86.034"><defs id="defs6376"><clipPath id="clipPath6229" clipPathUnits="userSpaceOnUse"><rect style="opacity:1;vector-effect:none;fill:none;fill-opacity:1;stroke:#c71717;stroke-width:.45313108;stroke-linecap:round;stroke-linejoin:round;stroke-miterlimit:4;stroke-dasharray:none;stroke-dashoffset:0;stroke-opacity:.54019291;paint-order:stroke fill markers" id="rect6231" width="97.411" height="86.034" x="-1171.876" y="575.939"/></clipPath></defs><metadata id="metadata6379"/><g id="layer1" transform="translate(-50.324023,-90.697212)"><g id="g6374" transform="translate(1222.2,-485.24157)"><g id="g6180" clip-path="url(#clipPath6229)"><rect id="rect5765" width="95.25" height="190.5" x="-1171.852" y="575.962" style="fill:#eceff1;stroke-width:.26458332"/><rect id="rect5767" width="95.25" height="193.146" x="-1171.852" y="573.316" style="fill:#fff;stroke-width:.28991595"/><rect style="fill:#94d3ac;fill-opacity:1;stroke-width:.28991595" id="rect5769" width="108.857" height="96.384" x="-1171.852" y="573.316"/><path style="fill:#ccedd2;fill-opacity:.79099678;stroke:none;stroke-width:.26458332px;stroke-linecap:butt;stroke-linejoin:miter;stroke-opacity:1" id="path5771" d="m -1204.766,596.60914 c 3.2072,-4.00904 33.7176,-39.08575 64.1456,-15.22418 9.6694,7.5827 -9.5842,17.18658 -6.8009,25.54811 7.5452,22.66687 33.5324,37.05104 56.2667,44.39042 13.5935,4.38843 42.8126,-1.85983 42.8126,-1.85983 l -18.7802,59.13142 -125.6167,-7.48355 z"/><path style="fill:#c0e8ca;fill-opacity:1;stroke-width:.08291517" id="path5883" d="m -1077.8086,633.23261 c -0.8859,-0.40231 -1.2026,-1.68373 -0.6041,-2.44451 0.096,-0.12114 0.3932,-0.36968 0.6622,-0.55231 0.646,-0.43865 0.7901,-0.71535 0.6647,-1.27471 -0.052,-0.23121 -0.2036,-0.61131 -0.3369,-0.84468 -0.2135,-0.37344 -0.2889,-0.43597 -0.6289,-0.52159 -0.3178,-0.08 -0.4658,-0.0742 -0.8335,0.0327 -0.8201,0.23844 -1.3469,0.93554 -1.5378,2.03547 -0.1604,0.92079 -0.5724,1.28854 -1.3713,1.22228 -0.3465,-0.0287 -0.499,-0.0893 -0.693,-0.27517 -0.4622,-0.44286 -0.5259,-1.20875 -0.137,-1.65896 0.1027,-0.11874 0.4011,-0.2841 0.679,-0.37559 0.2727,-0.0899 0.6389,-0.26248 0.8136,-0.38351 0.3485,-0.24152 0.7217,-0.80589 0.7217,-1.09153 0,-0.47485 -0.6274,-1.42168 -0.9399,-1.41851 -0.4069,0.004 -0.9277,0.352 -1.664,1.11143 -0.8201,0.84584 -1.012,0.93932 -1.756,0.85547 -1.0321,-0.11634 -1.6559,-1.26885 -1.2339,-2.27929 0.1713,-0.41116 0.3487,-0.59607 0.7432,-0.77722 0.4772,-0.21914 1.0444,-0.19994 1.5164,0.0513 0.4939,0.26304 1.069,0.27502 1.5695,0.0327 0.2586,-0.12516 0.3489,-0.21319 0.3187,-0.31094 -0.023,-0.075 -0.095,-0.37406 -0.164,-0.66461 -0.067,-0.29055 -0.2025,-0.61402 -0.3009,-0.71881 -0.5197,-0.55325 -1.8335,-0.7377 -2.7153,-0.38118 -0.2412,0.0975 -0.5584,0.17718 -0.7047,0.17711 -0.6326,-2.6e-4 -1.22,-0.56892 -1.22,-1.18114 0,-1.14196 1.1672,-1.62679 2.1459,-0.89137 0.5342,0.40136 1.4405,0.70097 1.9475,0.64382 0.7706,-0.0869 1.3527,-0.57949 1.4383,-1.21714 0.034,-0.25902 0,-0.40981 -0.1695,-0.69685 -0.2576,-0.43967 -1.0022,-1.13728 -1.5344,-1.43764 -1.0153,-0.57296 -1.1963,-0.7657 -1.348,-1.43531 -0.1586,-0.70341 0.3281,-1.61781 0.9763,-1.83172 0.45,-0.14848 1.2018,-0.0641 1.549,0.17384 0.5158,0.35344 0.6707,0.74252 0.6748,1.69645 0,0.9205 0.1298,1.27744 0.6258,1.77312 0.3658,0.36586 0.5877,0.39922 1.011,0.15202 0.1948,-0.11358 0.646,-0.30994 1.0032,-0.43636 0.795,-0.28148 0.9261,-0.44208 0.8621,-1.05619 -0.052,-0.49206 -0.3105,-1.28992 -0.6436,-1.98253 -0.1245,-0.25963 -0.2714,-0.65625 -0.3255,-0.88137 -0.2487,-1.03764 0.5079,-2.001 1.572,-2.001 0.7862,0 1.4015,0.50029 1.5823,1.28651 0.1352,0.58851 0,1.01276 -0.4745,1.4947 -0.2086,0.21166 -0.4578,0.5578 -0.5539,0.76922 -0.226,0.49819 -0.2239,1.2384 0,1.7525 0.1641,0.36715 0.1785,0.37699 0.9311,0.61632 1.0128,0.32216 1.0478,0.29987 1.0103,-0.64435 -0.034,-0.86974 0.067,-1.20139 0.4794,-1.57441 0.9642,-0.87114 2.5335,-0.32465 2.7073,0.94272 0.1461,1.06277 -0.6373,1.90344 -1.7727,1.90344 -0.2149,0 -0.5151,0.20986 -0.5151,0.36009 0,0.0312 0.1677,0.26291 0.373,0.51479 0.2052,0.25188 0.4493,0.60732 0.5423,0.78986 0.2062,0.40439 0.4641,0.5163 1.0886,0.47275 0.5463,-0.0381 1.0424,-0.33212 1.3211,-0.78293 0.2275,-0.36834 0.5493,-0.52541 1.0764,-0.52541 0.5161,0 0.9219,0.22053 1.0719,0.58252 0.1479,0.35829 0.061,0.95806 -0.1785,1.2132 -0.3692,0.39528 -0.5603,0.44257 -1.7033,0.42131 -1.1196,-0.0208 -1.7385,0.0872 -1.9605,0.34223 -0.07,0.0808 -0.1352,0.40303 -0.1622,0.79881 -0.025,0.36482 -0.067,0.7193 -0.094,0.78772 -0.034,0.0868 0.11,0.23269 0.4782,0.48245 0.911,0.61774 1.4123,0.71885 2.0864,0.42066 0.5502,-0.24335 1.2992,-0.19593 1.7641,0.11166 0.4875,0.32261 0.8019,0.99798 0.7408,1.59072 -0.087,0.84491 -0.6382,1.36937 -1.5051,1.4327 -0.6781,0.0495 -1.1301,-0.18176 -1.5493,-0.79265 -0.6488,-0.94563 -1.5665,-1.66777 -2.1214,-1.6694 -0.2178,-7.9e-4 -0.3172,0.0664 -0.5501,0.3715 -0.2291,0.30028 -0.2953,0.47621 -0.3418,0.90968 -0.085,0.79078 0.095,1.20367 0.5277,1.20732 0.291,0.003 0.8376,0.26345 1.0611,0.50659 0.4811,0.52323 0.5595,1.23266 0.2101,1.90132 -0.2941,0.56304 -0.7446,0.82397 -1.4227,0.82397 -0.5583,0 -0.9371,-0.18164 -1.2896,-0.61857 l -0.2507,-0.31091 v -1.24644 c 0,-1.2333 0,-1.24806 -0.2074,-1.40005 -0.1923,-0.1426 -0.2363,-0.14479 -0.6127,-0.0305 -0.223,0.0677 -0.4563,0.16519 -0.5183,0.21663 -0.1731,0.14437 -0.1371,0.87471 0.099,1.96094 0.3058,1.40932 0.3829,2.11683 0.2805,2.57395 -0.1694,0.75743 -0.7927,1.25582 -1.5695,1.25582 -0.2054,0 -0.5269,-0.0697 -0.7145,-0.15499 z"/><path id="path5918" d="m -1100.5697,606.27633 c -0.4914,-0.22315 -0.6671,-0.93392 -0.3351,-1.3559 0.053,-0.0672 0.2181,-0.20505 0.3673,-0.30635 0.3583,-0.24331 0.4383,-0.39679 0.3687,-0.70705 -0.029,-0.12824 -0.1129,-0.33908 -0.1869,-0.46852 -0.1184,-0.20713 -0.1602,-0.24182 -0.3488,-0.28931 -0.1763,-0.0444 -0.2584,-0.0412 -0.4623,0.0181 -0.4549,0.13226 -0.7471,0.51892 -0.853,1.12902 -0.089,0.51074 -0.3175,0.71472 -0.7606,0.67797 -0.1922,-0.0159 -0.2768,-0.0495 -0.3844,-0.15264 -0.2564,-0.24564 -0.2917,-0.67045 -0.076,-0.92018 0.057,-0.0659 0.2225,-0.15757 0.3766,-0.20832 0.1513,-0.0499 0.3544,-0.14559 0.4513,-0.21273 0.1933,-0.13396 0.4003,-0.447 0.4003,-0.60544 0,-0.26338 -0.348,-0.78856 -0.5213,-0.78681 -0.2257,0.002 -0.5146,0.19525 -0.923,0.61649 -0.4549,0.46916 -0.5613,0.52101 -0.974,0.4745 -0.5725,-0.0645 -0.9185,-0.70379 -0.6844,-1.26426 0.095,-0.22806 0.1934,-0.33062 0.4122,-0.4311 0.2647,-0.12156 0.5793,-0.1109 0.8411,0.0285 0.274,0.1459 0.593,0.15254 0.8706,0.0181 0.1434,-0.0694 0.1935,-0.11825 0.1768,-0.17247 -0.013,-0.0416 -0.053,-0.20748 -0.091,-0.36864 -0.037,-0.16116 -0.1123,-0.34058 -0.1669,-0.39871 -0.2883,-0.30687 -1.017,-0.40918 -1.5061,-0.21143 -0.1338,0.0541 -0.3097,0.0983 -0.3909,0.0982 -0.3509,-1.7e-4 -0.6767,-0.31556 -0.6767,-0.65514 0,-0.63342 0.6474,-0.90234 1.1903,-0.49442 0.2963,0.22262 0.799,0.3888 1.0802,0.35711 0.4274,-0.0482 0.7503,-0.32143 0.7978,-0.67512 0.019,-0.14367 0,-0.22731 -0.094,-0.38652 -0.1429,-0.24388 -0.5559,-0.63082 -0.8511,-0.79742 -0.5632,-0.3178 -0.6636,-0.42471 -0.7477,-0.79613 -0.088,-0.39016 0.182,-0.89735 0.5415,-1.016 0.2496,-0.0824 0.6666,-0.0356 0.8592,0.0964 0.2861,0.19605 0.372,0.41186 0.3743,0.94098 0,0.51057 0.072,0.70856 0.3471,0.9835 0.2029,0.20293 0.326,0.22143 0.5608,0.0843 0.108,-0.063 0.3583,-0.17192 0.5564,-0.24204 0.441,-0.15613 0.5137,-0.24521 0.4782,-0.58584 -0.029,-0.27293 -0.1722,-0.71548 -0.357,-1.09965 -0.069,-0.14401 -0.1505,-0.364 -0.1805,-0.48888 -0.138,-0.57554 0.2817,-1.1099 0.8719,-1.1099 0.4361,0 0.7774,0.2775 0.8777,0.7136 0.075,0.32643 0,0.56175 -0.2632,0.82907 -0.1157,0.1174 -0.2539,0.30939 -0.3072,0.42666 -0.1254,0.27633 -0.1242,0.68691 0,0.97206 0.091,0.20366 0.099,0.20911 0.5164,0.34186 0.5618,0.17869 0.5812,0.16633 0.5604,-0.3574 -0.019,-0.48242 0.037,-0.66638 0.2659,-0.87329 0.5348,-0.48319 1.4053,-0.18007 1.5017,0.52291 0.081,0.58949 -0.3535,1.05578 -0.9833,1.05578 -0.1192,0 -0.2857,0.11641 -0.2857,0.19973 0,0.0173 0.093,0.14583 0.2069,0.28555 0.1138,0.1397 0.2492,0.33686 0.3008,0.43811 0.1144,0.2243 0.2574,0.28637 0.6038,0.26222 0.303,-0.0211 0.5782,-0.18422 0.7328,-0.43427 0.1262,-0.20431 0.3047,-0.29143 0.597,-0.29143 0.2863,0 0.5114,0.12232 0.5946,0.32311 0.082,0.19873 0.034,0.53141 -0.099,0.67293 -0.2048,0.21924 -0.3108,0.24548 -0.9448,0.23369 -0.621,-0.0116 -0.9643,0.0484 -1.0874,0.18982 -0.039,0.0448 -0.075,0.22355 -0.09,0.44308 -0.014,0.20236 -0.037,0.39897 -0.052,0.43693 -0.019,0.0481 0.061,0.12906 0.2652,0.26759 0.5053,0.34265 0.7834,0.39873 1.1573,0.23333 0.3052,-0.13497 0.7206,-0.10867 0.9785,0.0619 0.2704,0.17894 0.4448,0.55355 0.4109,0.88233 -0.048,0.46865 -0.354,0.75955 -0.8349,0.79468 -0.3761,0.0275 -0.6268,-0.10082 -0.8593,-0.43966 -0.3599,-0.52452 -0.8689,-0.92507 -1.1767,-0.92597 -0.1208,-3.5e-4 -0.1759,0.0368 -0.3051,0.20606 -0.1271,0.16655 -0.1638,0.26414 -0.1896,0.50457 -0.047,0.43862 0.053,0.66764 0.2927,0.66967 0.1614,10e-4 0.4646,0.14613 0.5886,0.28099 0.2668,0.29022 0.3103,0.68372 0.1165,1.05461 -0.1631,0.3123 -0.413,0.45703 -0.7891,0.45703 -0.3097,0 -0.5198,-0.10075 -0.7153,-0.3431 l -0.1391,-0.17245 v -0.69137 c 0,-0.68407 0,-0.69226 -0.115,-0.77657 -0.1067,-0.0791 -0.1311,-0.0803 -0.3399,-0.0169 -0.1237,0.0376 -0.2531,0.0916 -0.2875,0.12016 -0.096,0.0801 -0.076,0.48518 0.055,1.08768 0.1696,0.78172 0.2124,1.17415 0.1556,1.4277 -0.094,0.42013 -0.4397,0.69657 -0.8706,0.69657 -0.1139,0 -0.2922,-0.0387 -0.3963,-0.086 z" style="fill:#c0e8ca;fill-opacity:1;stroke-width:.04599077"/><path style="fill:#94d3ac;fill-opacity:1;stroke-width:.03648547" id="path5920" d="m -1159.6892,619.19056 c -0.428,-0.0111 -0.7762,-0.47606 -0.6641,-0.88701 0.018,-0.0655 0.096,-0.21724 0.1736,-0.33737 0.1865,-0.28854 0.1976,-0.42541 0.051,-0.63057 -0.061,-0.0847 -0.1873,-0.21282 -0.2814,-0.28451 -0.1506,-0.11472 -0.1918,-0.12713 -0.3443,-0.10352 -0.1426,0.0221 -0.2015,0.0498 -0.3322,0.15617 -0.2914,0.23727 -0.3854,0.61011 -0.274,1.08859 0.093,0.40065 -0.011,0.62033 -0.3462,0.73048 -0.1453,0.0478 -0.2175,0.0494 -0.328,0.007 -0.2632,-0.10019 -0.4204,-0.39964 -0.34,-0.64878 0.021,-0.0657 0.1138,-0.18392 0.2108,-0.26864 0.095,-0.0832 0.2138,-0.21594 0.2639,-0.29495 0.1,-0.15764 0.1542,-0.45034 0.1053,-0.5661 -0.082,-0.19242 -0.4981,-0.46852 -0.6242,-0.41366 -0.1642,0.0715 -0.3156,0.30175 -0.4837,0.73577 -0.1873,0.48342 -0.249,0.5542 -0.5649,0.64781 -0.4383,0.12987 -0.8886,-0.2302 -0.8909,-0.71205 0,-0.19599 0.039,-0.30134 0.1678,-0.4424 0.1558,-0.17065 0.389,-0.26014 0.6233,-0.23925 0.2453,0.0219 0.4805,-0.0719 0.6417,-0.25592 0.083,-0.0951 0.1049,-0.14622 0.076,-0.18066 -0.022,-0.0264 -0.1028,-0.13521 -0.1804,-0.2412 -0.077,-0.1063 -0.1873,-0.2141 -0.2452,-0.23969 -0.3055,-0.13506 -0.8695,0.0155 -1.1657,0.31119 -0.081,0.0809 -0.1958,0.16756 -0.2552,0.19263 -0.2565,0.10837 -0.592,-0.0213 -0.697,-0.26942 -0.1958,-0.46277 0.194,-0.8594 0.7168,-0.72924 0.2853,0.071 0.704,0.037 0.8996,-0.0731 0.2973,-0.16734 0.4488,-0.46681 0.3741,-0.7399 -0.031,-0.11083 -0.071,-0.16607 -0.1882,-0.25332 -0.1798,-0.13399 -0.6011,-0.289 -0.8683,-0.31945 -0.5097,-0.0581 -0.6161,-0.10512 -0.7924,-0.35047 -0.1849,-0.25784 -0.1445,-0.71187 0.082,-0.9097 0.1568,-0.13735 0.476,-0.23208 0.6575,-0.19521 0.2696,0.0548 0.3991,0.18589 0.5644,0.57175 0.1578,0.37302 0.2717,0.49541 0.5577,0.61122 0.2109,0.0855 0.3066,0.061 0.4357,-0.11179 0.059,-0.0794 0.2087,-0.23638 0.3317,-0.34886 0.274,-0.25041 0.2995,-0.33797 0.1683,-0.57586 -0.1056,-0.19043 -0.3471,-0.46948 -0.6009,-0.69302 -0.095,-0.0839 -0.2224,-0.2194 -0.283,-0.30136 -0.2787,-0.37782 -0.1374,-0.89798 0.2939,-1.08046 0.3186,-0.13483 0.6537,-0.0376 0.8619,0.24998 0.1557,0.2153 0.1736,0.41041 0.064,0.68709 -0.048,0.12154 -0.09,0.30454 -0.093,0.40669 -0.01,0.24066 0.1216,0.54026 0.3005,0.71019 0.1295,0.12065 0.137,0.12216 0.483,0.0901 0.4657,-0.0431 0.4761,-0.0582 0.2989,-0.43438 -0.163,-0.34658 -0.179,-0.49829 -0.075,-0.72023 0.2413,-0.51837 0.971,-0.56605 1.2588,-0.0823 0.2414,0.40564 0.068,0.88065 -0.392,1.07537 -0.087,0.0369 -0.1727,0.17338 -0.147,0.23425 0.01,0.0127 0.1131,0.0778 0.2395,0.14465 0.1263,0.0669 0.2862,0.16906 0.3552,0.22708 0.1529,0.1285 0.2766,0.12964 0.5222,0.005 0.2149,-0.10911 0.3655,-0.31336 0.4011,-0.54384 0.029,-0.18829 0.1325,-0.30713 0.3461,-0.3975 0.2092,-0.0885 0.4114,-0.0688 0.5343,0.0522 0.1214,0.11984 0.1891,0.37773 0.1357,0.52225 -0.082,0.2235 -0.1511,0.27544 -0.618,0.46284 -0.4572,0.18356 -0.6895,0.33349 -0.7357,0.47489 -0.014,0.0448 0.014,0.18652 0.071,0.35154 0.052,0.15217 0.096,0.30293 0.097,0.33529 0,0.041 0.084,0.0754 0.2765,0.11351 0.4752,0.0941 0.6956,0.0491 0.9177,-0.18734 0.1813,-0.19298 0.4929,-0.3022 0.734,-0.25729 0.2529,0.0471 0.4961,0.2669 0.573,0.51758 0.1099,0.35724 -0.024,0.66438 -0.3642,0.83872 -0.2664,0.13635 -0.4892,0.12014 -0.7638,-0.0555 -0.4251,-0.27193 -0.9209,-0.4072 -1.146,-0.31269 -0.088,0.0371 -0.1171,0.0813 -0.1591,0.24488 -0.041,0.16098 -0.038,0.24362 0.017,0.42726 0.1013,0.33498 0.2452,0.47138 0.4209,0.39875 0.1183,-0.0489 0.3847,-0.0369 0.5169,0.0233 0.2846,0.12955 0.4381,0.40359 0.4112,0.73447 -0.022,0.2786 -0.1604,0.4616 -0.4352,0.57788 -0.2263,0.0957 -0.4109,0.0871 -0.6287,-0.0295 l -0.1549,-0.083 -0.2138,-0.50511 c -0.2115,-0.49978 -0.214,-0.50576 -0.3241,-0.5318 -0.1024,-0.0248 -0.1206,-0.0181 -0.2536,0.0927 -0.078,0.0657 -0.1565,0.1452 -0.1729,0.17668 -0.045,0.0882 0.094,0.37797 0.3765,0.77765 0.3656,0.51867 0.5182,0.79215 0.5551,0.99496 0.061,0.336 -0.1059,0.64485 -0.4207,0.77808 -0.083,0.0352 -0.2254,0.0621 -0.3161,0.0597 z"/><path id="path5922" d="m -1153.3699,594.24442 c -0.2514,-0.006 -0.456,-0.27969 -0.3902,-0.52112 0.011,-0.0385 0.056,-0.12763 0.102,-0.19822 0.1096,-0.16951 0.1161,-0.24992 0.03,-0.37045 -0.036,-0.0498 -0.11,-0.12504 -0.1653,-0.16715 -0.089,-0.0674 -0.1127,-0.0747 -0.2023,-0.0608 -0.084,0.013 -0.1184,0.0293 -0.1952,0.0918 -0.1712,0.1394 -0.2264,0.35844 -0.1609,0.63955 0.055,0.23538 -0.01,0.36444 -0.2034,0.42916 -0.085,0.0281 -0.1278,0.029 -0.1927,0.004 -0.1547,-0.0589 -0.247,-0.23479 -0.1998,-0.38116 0.012,-0.0386 0.067,-0.10806 0.1238,-0.15783 0.056,-0.0489 0.1257,-0.12687 0.1551,-0.17328 0.059,-0.0926 0.091,-0.26458 0.062,-0.33259 -0.048,-0.11305 -0.2927,-0.27526 -0.3668,-0.24303 -0.096,0.042 -0.1854,0.17728 -0.2841,0.43227 -0.1101,0.28401 -0.1463,0.32559 -0.3319,0.38059 -0.2575,0.0763 -0.5221,-0.13524 -0.5234,-0.41833 0,-0.11515 0.023,-0.17704 0.099,-0.25991 0.091,-0.10026 0.2285,-0.15283 0.3661,-0.14056 0.1442,0.0128 0.2823,-0.0422 0.377,-0.15036 0.049,-0.0558 0.062,-0.0859 0.045,-0.10614 -0.013,-0.0155 -0.06,-0.0794 -0.106,-0.1417 -0.045,-0.0625 -0.11,-0.12579 -0.144,-0.14082 -0.1795,-0.0793 -0.5109,0.009 -0.6849,0.18282 -0.048,0.0475 -0.115,0.0984 -0.1499,0.11318 -0.1507,0.0637 -0.3478,-0.0125 -0.4095,-0.15829 -0.1151,-0.27188 0.114,-0.5049 0.4211,-0.42843 0.1676,0.0417 0.4136,0.0217 0.5285,-0.0429 0.1747,-0.0983 0.2637,-0.27426 0.2198,-0.4347 -0.018,-0.0651 -0.042,-0.0976 -0.1106,-0.14883 -0.1056,-0.0787 -0.3531,-0.16979 -0.5101,-0.18767 -0.2994,-0.0341 -0.362,-0.0618 -0.4655,-0.20591 -0.1087,-0.15148 -0.085,-0.41822 0.048,-0.53445 0.092,-0.0807 0.2797,-0.13635 0.3863,-0.11469 0.1584,0.0322 0.2345,0.10921 0.3316,0.33591 0.093,0.21915 0.1596,0.29105 0.3277,0.35909 0.1239,0.0502 0.1801,0.0358 0.2559,-0.0657 0.035,-0.0467 0.1227,-0.13887 0.1949,-0.20495 0.161,-0.14712 0.176,-0.19856 0.099,-0.33832 -0.062,-0.11189 -0.2039,-0.27583 -0.353,-0.40716 -0.056,-0.0493 -0.1307,-0.1289 -0.1663,-0.17705 -0.1637,-0.22197 -0.081,-0.52757 0.1727,-0.63477 0.1871,-0.0792 0.384,-0.0221 0.5063,0.14686 0.091,0.12649 0.102,0.24112 0.038,0.40367 -0.028,0.0714 -0.053,0.17892 -0.055,0.23893 -0.01,0.14139 0.071,0.3174 0.1765,0.41724 0.076,0.0709 0.081,0.0718 0.2838,0.0529 0.2736,-0.0254 0.2797,-0.0342 0.1756,-0.2552 -0.096,-0.20362 -0.1051,-0.29275 -0.044,-0.42314 0.1417,-0.30454 0.5704,-0.33256 0.7395,-0.0483 0.1418,0.23832 0.04,0.51739 -0.2303,0.63179 -0.051,0.0217 -0.1015,0.10186 -0.086,0.13762 0.01,0.007 0.066,0.0457 0.1407,0.085 0.074,0.0393 0.1682,0.0993 0.2087,0.13342 0.09,0.0755 0.1625,0.0762 0.3068,0.003 0.1263,-0.0641 0.2148,-0.1841 0.2357,-0.31951 0.017,-0.11062 0.078,-0.18044 0.2033,-0.23354 0.1229,-0.052 0.2417,-0.0404 0.3139,0.0307 0.071,0.0704 0.1111,0.22192 0.08,0.30683 -0.048,0.1313 -0.089,0.16182 -0.363,0.27192 -0.2686,0.10784 -0.4051,0.19593 -0.4323,0.279 -0.01,0.0263 0.01,0.10958 0.042,0.20653 0.031,0.0894 0.056,0.17797 0.057,0.19699 0,0.0241 0.049,0.0443 0.1625,0.0667 0.2792,0.0553 0.4086,0.0289 0.5391,-0.11007 0.1065,-0.11337 0.2896,-0.17754 0.4313,-0.15115 0.1485,0.0277 0.2914,0.1568 0.3366,0.30408 0.065,0.20987 -0.014,0.39032 -0.214,0.49275 -0.1565,0.0801 -0.2874,0.0706 -0.4487,-0.0326 -0.2498,-0.15976 -0.541,-0.23923 -0.6733,-0.18371 -0.052,0.0218 -0.069,0.0478 -0.093,0.14387 -0.024,0.0946 -0.022,0.14313 0.01,0.25101 0.059,0.19681 0.1441,0.27695 0.2473,0.23428 0.069,-0.0287 0.226,-0.0217 0.3037,0.0137 0.1672,0.0761 0.2574,0.2371 0.2416,0.4315 -0.013,0.16368 -0.094,0.27119 -0.2557,0.33951 -0.133,0.0562 -0.2414,0.0512 -0.3694,-0.0173 l -0.091,-0.0487 -0.1256,-0.29676 c -0.1242,-0.29362 -0.1257,-0.29713 -0.1904,-0.31243 -0.06,-0.0146 -0.071,-0.0107 -0.149,0.0545 -0.046,0.0386 -0.092,0.0853 -0.1016,0.1038 -0.026,0.0518 0.055,0.22206 0.2212,0.45687 0.2148,0.30472 0.3045,0.46539 0.3262,0.58454 0.036,0.19741 -0.062,0.37886 -0.2472,0.45713 -0.049,0.0207 -0.1324,0.0365 -0.1857,0.0351 z" style="fill:#94d3ac;fill-opacity:1;stroke-width:.0214354"/></g><g style="fill:none" id="g5881" transform="matrix(0.06982852,0,0,0.06982852,-1150.962,590.8366)"><path style="fill:#94d3ac;fill-opacity:1" id="path5823" d="m 299.079,648.56106 -8.89026,-35.06486 a 455.3229,455.3229 0 0 0 -48.30717,-17.33113 l -1.12257,16.29606 -4.55175,-17.95328 C 215.84943,588.69462 202,586.134 202,586.134 c 0,0 18.70738,71.13842 57.94476,125.52465 l 45.72014,8.031 -35.51871,5.12114 a 184.211,184.211 0 0 0 15.888,16.83723 c 57.07929,52.9818 120.65488,77.29013 142.00008,54.29413 21.3452,-22.996 -7.623,-84.58813 -64.70233,-137.56993 -17.69515,-16.42488 -39.924,-29.6057 -62.175,-39.97928 z" transform="translate(-202,-94.11445)"/><path style="fill:#94d3ac;fill-opacity:1" id="path5825" d="m 383.63224,610.48142 10.51462,-34.61248 a 455.32041,455.32041 0 0 0 -32.39463,-39.80627 l -9.3844,13.36992 5.38357,-17.72159 c -14.42234,-15.49938 -24.95448,-24.85018 -24.95448,-24.85018 0,0 -20.75719,70.56756 -15.28054,137.40647 l 34.98725,30.50771 -33.05275,-13.97575 a 184.2128,184.2128 0 0 0 4.89768,22.626 c 21.47608,74.85917 63.33463,128.5305 93.49375,119.87826 30.15912,-8.65224 37.19806,-76.3516 15.722,-151.21077 -6.6578,-23.20708 -18.87351,-45.98058 -32.55921,-66.36238 z" transform="translate(-202,-94.11445)"/><path style="fill:#c0e8ca;fill-opacity:1" id="path5827" d="m 884.17981,752.05584 6.61544,-7.14478 a 122.56157,122.56157 0 0 0 -3.1639,-13.4473 l -3.84424,2.134 3.38713,-3.65813 c -1.66992,-5.44865 -3.12076,-8.95111 -3.12076,-8.95111 0,0 -13.32284,14.64664 -19.85509,31.47479 l 4.88491,11.50059 -6.36018,-7.27012 a 49.58586,49.58586 0 0 0 -1.47426,6.05443 c -3.60112,20.65124 0.22421,38.56849 8.54414,40.0193 8.31993,1.45081 17.98384,-14.1142 21.585,-34.76544 a 65.28076,65.28076 0 0 0 -0.0815,-19.8969 z" transform="translate(-202,-94.11445)"/><path style="fill:#c0e8ca;fill-opacity:1" id="path5829" d="m 982.04942,766.18571 9.35626,-2.69673 a 122.55844,122.55844 0 0 0 4.24249,-13.14691 l -4.39392,-0.16027 4.79042,-1.38071 C 997.43156,743.27362 998,739.52541 998,739.52541 c 0,0 -18.97582,5.65159 -33.26621,16.68071 l -1.763,12.37 -1.68666,-9.51114 a 49.58626,49.58626 0 0 0 -4.39158,4.42083 c -13.75737,15.817 -19.74417,33.13225 -13.37186,38.67479 6.37231,5.54254 22.69062,-2.78652 36.448,-18.60348 a 65.281,65.281 0 0 0 10.215,-17.07476 z" transform="translate(-202,-94.11445)"/><path style="fill:#3f3d56" id="path5831" d="M 720.49687,142.406 V 754.56957 A 48.30136,48.30136 0 0 1 672.2053,802.86126 H 434.31173 A 48.30567,48.30567 0 0 1 386,754.56957 V 142.406 a 48.30564,48.30564 0 0 1 48.31173,-48.29157 h 28.85807 a 22.96636,22.96636 0 0 0 21.246,31.61713 H 620.0471 A 22.96611,22.96611 0 0 0 641.293,94.11445 h 30.9123 a 48.30134,48.30134 0 0 1 48.29157,48.29155 z" transform="translate(-202,-94.11445)"/><rect style="fill:#fff" id="rect5833" width="213.564" height="2" x="244.574" y="409.904"/><circle style="fill:#94d3ac" id="circle5835" cx="251.319" cy="390.671" r="6.744"/><rect style="fill:#fff" id="rect5837" width="213.564" height="2" x="244.574" y="477.345"/><circle style="fill:#94d3ac" id="circle5839" cx="251.319" cy="458.113" r="6.744"/><rect style="fill:#94d3ac" id="rect5841" width="75.31" height="31.473" x="382.83" y="522.182" rx="4"/><rect style="fill:#3f3d56" id="rect5843" width="795.205" height="2" x=".795" y="707.767"/><path style="fill:#ffb8b8" id="path5845" d="m 846.52086,419.196 c 0,0 -2.76836,17.533 0,20.30134 2.76836,2.76834 -17.533,25.838 -17.533,25.838 l -16.61018,-23.06969 c 0,0 7.38231,-11.99624 4.61394,-22.14691 z" transform="translate(-202,-94.11445)"/><polygon style="fill:#2f2e41" id="polygon5847" points="598.377 678.508 599.304 588.998 625.145 511.485 640.829 595.459 638.98 680.355 666.664 681.279 668.513 587.155 671.756 455.695 583.621 457.039 571.62 585.306 576.23 684.967"/><path style="fill:#2f2e41" id="path5849" d="m 841.90692,771.70088 v 20.30133 c 0,0 -4.61392,14.76461 10.15067,13.84179 14.76459,-0.92282 13.84181,-7.3823 13.84181,-7.3823 l -5.53672,-24.91527 z" transform="translate(-202,-94.11445)"/><path style="fill:#2f2e41" id="path5851" d="m 799.45869,771.70088 v 20.30133 c 0,0 4.61393,14.76461 -10.15067,13.84182 -14.7646,-0.92279 -13.84182,-7.3823 -13.84182,-7.3823 l 5.53673,-24.91527 z" transform="translate(-202,-94.11445)"/><circle style="fill:#ffb8b8" id="circle5853" cx="628.833" cy="314.008" r="21.224"/><path style="fill:#575a89" id="path5855" d="m 829.91068,455.18468 1.84558,-9.22788 h 4.61394 l 8.9225,-12.83445 7.68768,7.29772 1.84557,43.371 h -49.83054 l 4.61394,-46.13939 6.71934,-4.52936 c 0,0 -1.18261,15.60281 11.73642,15.60281 z" transform="translate(-202,-94.11445)"/><path style="fill:#d0cde1" id="path5857" d="m 810.53214,445.034 c 0,0 7.64172,9.67444 19.04686,8.98977 11.40514,-0.68467 22.47859,-9.91256 22.47859,-9.91256 L 867.745,564.07363 c 0,0 -17.533,1.84558 -23.06969,-7.3823 l -42.44824,-0.92279 0.92279,-111.65732 z" transform="translate(-202,-94.11445)"/><path style="fill:#2f2e41" id="path5859" d="m 816.762,431.5308 -40.373,19.96273 10.15067,57.21284 c 0,0 3.69115,21.22412 0,29.52921 -3.69115,8.30509 -7.38231,63.67235 -7.38231,63.67235 0,0 41.52545,4.61394 35.98873,-60.904 C 809.60937,475.48599 816.762,431.5308 816.762,431.5308 Z" transform="translate(-202,-94.11445)"/><path style="fill:#ffb8b8" id="path5861" d="m 792.07638,569.61036 5.53673,5.53673 c 0,0 16.61018,28.60642 23.99248,18.45575 7.3823,-10.15067 -12.919,-27.68363 -12.919,-27.68363 l -9.22787,-7.3823 z" transform="translate(-202,-94.11445)"/><path style="fill:#2f2e41" id="path5863" d="m 845.31375,431.5308 39.9642,19.96273 -13.84182,68.28629 c 0,0 0.92279,22.14691 5.53673,34.14315 4.61394,11.99624 2.76836,47.06217 2.76836,47.06217 0,0 -5.53673,21.22412 -17.533,-31.37478 C 850.21195,517.01146 845.31375,431.5308 845.31375,431.5308 Z" transform="translate(-202,-94.11445)"/><path style="fill:#ffb8b8" id="path5865" d="M 876.05007,536.39 H 867.745 c 0,0 -27.68363,-3.69115 -25.83806,7.3823 1.84557,11.07345 27.68364,8.30509 27.68364,8.30509 l 10.15066,-0.92278 z" transform="translate(-202,-94.11445)"/><path style="fill:#2f2e41" id="path5867" d="m 781.92572,448.72516 -6.45952,2.76837 c 0,0 -6.45951,13.84181 -7.3823,18.45575 -0.92279,4.61394 -11.99624,59.98121 -9.2279,66.44072 2.76834,6.45951 30.452,40.60266 30.452,40.60266 l 15.68739,-16.61018 -23.06967,-31.37478 6.45951,-39.67988 z" transform="translate(-202,-94.11445)"/><path style="fill:#2f2e41" id="path5869" d="m 871.43613,449.648 12.20966,1.03029 2.55495,0.81529 c 0,0 25.838,70.13187 20.30133,81.20532 -5.53667,11.07345 -29.52921,31.37478 -29.52921,31.37478 l -6.45952,-28.60642 11.99624,-11.07345 -11.99624,-36.91151 z" transform="translate(-202,-94.11445)"/><path style="fill:#2f2e41" id="path5871" d="m 848.79006,391.757 c 0,0 5.55251,-10.41917 -6.663,-11.36636 0,0 -11.105,-6.63038 -19.989,0.94719 0,0 -7.77351,-1.89439 -9.99452,3.78879 0,0 -1.1105,-2.84159 2.221,-4.736 0,0 -7.77352,-1.8944 -7.77352,7.57757 0,0 -3.3315,9.472 0,17.99674 3.3315,8.52474 4.442,9.472 4.442,9.472 0,0 -5.47461,-17.87294 7.85141,-18.82013 13.32602,-0.94719 28.2399,-9.12218 29.3504,1.297 1.1105,10.41918 3.33151,13.26075 3.33151,13.26075 0,0 9.9945,-15.15517 -2.77628,-19.41755 z" transform="translate(-202,-94.11445)"/><g style="fill:none" id="g5879" transform="matrix(1.6996358,0,0,1.6996358,759.34858,282.64833)"><path id="path5873" d="m -243.68833,-35.032855 c -10.68988,-7.887112 -22.3599,-19.245085 -28.05875,-27.308486 -2.52859,-3.577738 -5.17343,-9.09833 -6.08306,-12.697203 -0.95496,-3.778182 -0.66423,-10.33147 0.60352,-13.603421 1.23786,-3.194873 3.7279,-6.442916 6.18908,-8.073126 4.20912,-2.788015 10.4411,-3.807889 16.14617,-2.642333 3.41625,0.697931 9.06307,3.604199 12.48156,6.423934 l 2.97663,2.455264 1.65371,-1.494022 c 7.5447,-6.816189 16.99415,-9.446892 25.02416,-6.966668 2.76431,0.853815 6.18498,3.030303 7.92295,5.041196 1.4967,1.731721 3.35099,5.824368 3.89751,8.602299 1.17038,5.948913 -0.20079,12.656904 -3.88221,18.992416 -5.33535,9.18182 -18.34924,22.461571 -30.9694,31.602098 -1.98633,1.438651 -3.68012,2.614107 -3.76399,2.612123 -0.0838,-0.0019 -1.94592,-1.326812 -4.13788,-2.944071 z" style="fill:#ff8ba7;fill-opacity:1;stroke-width:.44282129"/><path id="path5875" d="m -287.71837,-76.597604 c -2.07703,7.566191 -2.24377,19.796751 -0.29303,28.91658 3.32031,15.522516 11.19598,29.548586 23.91225,42.5865469 6.16903,6.3250778 12.39531,11.6035179 19.77709,16.7653851 2.63593,1.843233 3.05714,2.050521 4.16305,2.050521 1.06886,0 1.53549,-0.20882 3.5574,-1.588535 10.21458,-6.970204 20.29828,-16.1448829 27.18801,-24.737507 8.61111,-10.739486 14.31492,-22.258837 16.98191,-34.296097 2.18544,-9.863807 2.10302,-21.771986 -0.14469,-29.679842 a 81.300819,50.246668 0 0 1 -47.53405,9.559623 81.300819,50.246668 0 0 1 -47.60794,-9.576675 z" style="fill:#94d3ac;fill-opacity:1;stroke-width:.26458332"/><path id="path5877" d="m -727.84766,-289.4375 a 307.27869,189.90867 0 0 1 -179.65625,36.13086 V 51.855469 c 3.90457,-0.02596 5.74303,-0.867427 13.26172,-5.998047 38.60629,-26.344078 76.71789,-61.020034 102.75781,-93.496094 32.54593,-40.590183 54.10364,-84.127888 64.1836,-129.623048 8.25993,-37.28053 7.94841,-82.28782 -0.54688,-112.17578 z" transform="scale(0.26458333)" style="fill:#ccedd2;fill-opacity:1;stroke-width:.99999994"/></g></g></g></g></svg>